inDegrees=no
num_controls=7
num_derivatives=13
num_iterations=123
num_multipliers=7
num_parameters=0
num_slacks=7
num_states=26
objective=0.497127
objective_accelerations=0.041851
objective_balance=0.003553
objective_effort=0.039547
objective_height=0.406341
objective_ligament=0.005834
solver_duration=1410.847429
status=Solve_Succeeded
success=true
DataType=double
version=3
OpenSimVersion=4.5
endheader
time	/jointset/ground_pelvis/pelvis_tilt/value	/jointset/ground_pelvis/pelvis_tx/value	/jointset/ground_pelvis/pelvis_ty/value	/jointset/hip_r/hip_flexion_r/value	/jointset/hip_r/hip_adduction_r/value	/jointset/hip_r/hip_rotation_r/value	/jointset/back/lumbar_extension/value	/jointset/patellofemoral_r/patellar_flexion_r/value	/jointset/knee_r/knee_flexion_r/value	/jointset/knee_r/knee_adduction_r/value	/jointset/knee_r/knee_rotation_r/value	/jointset/ankle_r/ankle_angle_r/value	/jointset/subtalar_r/subtalar_angle_r/value	/jointset/ground_pelvis/pelvis_tilt/speed	/jointset/ground_pelvis/pelvis_tx/speed	/jointset/ground_pelvis/pelvis_ty/speed	/jointset/hip_r/hip_flexion_r/speed	/jointset/hip_r/hip_adduction_r/speed	/jointset/hip_r/hip_rotation_r/speed	/jointset/back/lumbar_extension/speed	/jointset/patellofemoral_r/patellar_flexion_r/speed	/jointset/knee_r/knee_flexion_r/speed	/jointset/knee_r/knee_adduction_r/speed	/jointset/knee_r/knee_rotation_r/speed	/jointset/ankle_r/ankle_angle_r/speed	/jointset/subtalar_r/subtalar_angle_r/speed	/forceset/tau_hip_flexion_r	/forceset/tau_hip_adduction_r	/forceset/tau_hip_rotation_r	/forceset/tau_knee_flexion_r	/forceset/tau_ankle_angle_r	/forceset/tau_subtalar_angle_r	/forceset/tau_lumbar_extension	lambda_cid13_p0	lambda_cid14_p0	lambda_cid14_p1	lambda_cid14_p2	lambda_cid14_p3	lambda_cid14_p4	lambda_cid14_p5	/jointset/ground_pelvis/pelvis_tilt/accel	/jointset/ground_pelvis/pelvis_tx/accel	/jointset/ground_pelvis/pelvis_ty/accel	/jointset/hip_r/hip_flexion_r/accel	/jointset/hip_r/hip_adduction_r/accel	/jointset/hip_r/hip_rotation_r/accel	/jointset/back/lumbar_extension/accel	/jointset/patellofemoral_r/patellar_flexion_r/accel	/jointset/knee_r/knee_flexion_r/accel	/jointset/knee_r/knee_adduction_r/accel	/jointset/knee_r/knee_rotation_r/accel	/jointset/ankle_r/ankle_angle_r/accel	/jointset/subtalar_r/subtalar_angle_r/accel	gamma_cid13_p0	gamma_cid14_p0	gamma_cid14_p1	gamma_cid14_p2	gamma_cid14_p3	gamma_cid14_p4	gamma_cid14_p5
0	-0.006515380157094137	0.09626029349110646	0.9427240762482245	0.1762555222360518	-0.2321526707722485	-0.2616406643617079	-0.038598046466844	0.07317863873451254	0.07317863873451017	0.174532709103645	0.1745329113821113	0.03247278518263602	-0.003451955655283704	0	0	0	0	0	0	0	0	0	0	0	0	0	0.2254459320310649	-0.1610084835636576	-0.04478452474368028	-0.4100059914097413	0.4103336979066394	-0.1490417386845088	-0.1214147482818875	-39.07622026656171	82.02650150864667	-40.55323599807531	-4.283937038270886	-36.12310828590101	-677.1101651515896	55.28762076463542	-1.8226032910178	-1.015262713980499	-0.6095671243040656	8.762010937626922	-0.0370876976784771	2.603420748746922	-4.941440478592861	9.537981346816917	9.537981346818537	-2.494415296491738	0.1750231604176195	3.346058446247787	0.707157161230481	8.558201391361274e-08	3.183551696923925e-08	-6.386706686439885e-07	1.834433399454371e-07	3.769013342393607e-08	1.295905872457946e-08	-3.154388383344987e-07
0.01	-0.006600177208898733	0.09621121588844554	0.9426947842860023	0.1766781716167466	-0.2321534885379929	-0.2615023964310216	-0.03884703957392803	0.0736421082523414	0.07364210825233851	0.174408583409416	0.1745298389276068	0.03263719617718904	-0.003416269912988496	-0.01690452318477823	-0.009677624985638872	-0.005844097320887037	0.08406487495331705	-0.000213516827110565	0.02753311385341781	-0.04940837427734506	0.0923078239103436	0.09230782391035694	-0.02460175071207419	-0.0006034744815338077	0.03284880036549834	0.007077883698880674	0.223053782485406	-0.1741369496114315	-0.04441223866771717	-0.4098457129689671	0.4092396775467471	-0.1364750564990002	-0.1189307894228357	-39.09175767739723	82.17161246804656	-35.14952161240377	-5.054739566338744	-37.58883745948054	-677.670082018771	65.95554403072869	-1.616141688976476	-0.9233205208469388	-0.5696841756345753	8.158977341196831	-0.02104404183535265	2.810232497878062	-4.881998831368719	9.0192538484708	9.019253848471815	-2.409627951770235	-0.1763245795301028	3.24929425559791	0.6991351277004781	1.155979926816317e-07	2.105791116157806e-08	-8.809821194836852e-07	1.645173655936318e-07	7.543613665361848e-08	-1.688988904560097e-07	-3.721213416683558e-07
0.02	-0.006852372463904854	0.09606950040992991	0.9426074807226403	0.1779275200603755	-0.2321579535453306	-0.2610924022029555	-0.03957840900959902	0.0750170701963386	0.07501707019633877	0.1740451256094355	0.1745210733628784	0.03312909586017547	-0.003311599103007745	-0.03347964064030509	-0.01852757517093931	-0.01160232022791924	0.1653398125871398	-0.0007294483185448343	0.05434525947638816	-0.09647526571722542	0.1822984852337968	0.1822984852338168	-0.04786642115234813	-0.001138622046714497	0.06549773768687929	0.01379701353710624	0.2206616329397386	-0.1872654156591961	-0.04403995259174734	-0.409685434528189	0.4081456571868611	-0.1239083743134802	-0.116446830563799	-39.13767635279422	82.39961535757786	-29.75126765851056	-5.801854968956821	-39.25239761690355	-676.978766666812	76.40171282354403	-1.756722145167526	-0.8497277539128122	-0.5923922415330996	8.204023473728046	-0.097570630543224	2.459227102657368	-4.47314391109992	9.074548829438845	9.074548829439141	-2.226999242131674	0.1886885436883086	3.306085837424307	0.6354063890994542	1.456139714496506e-07	1.028030535391686e-08	-1.123293570323382e-06	1.455913912418265e-07	1.131821398833009e-07	-3.507568396365989e-07	-4.288038450022129e-07
0.03	-0.007268664635098125	0.09584205580532712	0.9424627505182752	0.1799774283479057	-0.2321690633575718	-0.2604202655187973	-0.04076919286750135	0.0772809017308471	0.07728090173084876	0.1734559483109195	0.1745094248821075	0.03394480695860005	-0.003141852894132219	-0.04967877358243881	-0.02695853688072655	-0.01734791247072915	0.244284122370572	-0.001518301584297474	0.07992841738065021	-0.1413819559702386	0.2700613197625021	0.2700613197625166	-0.06976575896349416	-0.001187386402373004	0.09743464692707333	0.02007881203110658	0.2132048081417742	-0.1918192027610149	-0.04186907343106143	-0.3993793742414339	0.3906165493287241	-0.1129650637150001	-0.1107405292936643	-39.21276045218303	77.21701437146643	-25.98122966713144	-6.316999350873213	-35.89110888093261	-676.3720612434621	82.75852623076439	-1.536495255528853	-0.8393362602443954	-0.5663423756458213	7.685979456567726	-0.07354745147996292	2.584863153674382	-4.454499098450546	8.566146234747075	8.566146234746046	-2.141072798743963	-0.1010372890933544	3.10604348108951	0.6133938505242603	1.661648959027408e-07	8.3706656503488e-09	-1.271177405955621e-06	1.679976527546389e-07	1.339322591604229e-07	-4.677412630122717e-07	-4.969666719463108e-07
0.04	-0.007843945413070539	0.0955303904074799	0.9422604244594838	0.1828060486784539	-0.232188862657848	-0.2594968966517222	-0.04240005713114322	0.08041016070467411	0.08041016070467481	0.1726538432846583	0.1744974130849932	0.03507359715218142	-0.002911523246121859	-0.06527736199627292	-0.0353717338198236	-0.02312149111318274	0.3210822211906811	-0.002467345925596138	0.1045916960594615	-0.1844913468651925	0.3553839730976355	0.355383973097643	-0.09045196670015496	-0.001211285314047362	0.1281135567181696	0.02591370136406398	0.205747983343804	-0.1963729898628371	-0.03969819427037784	-0.3890733139546866	0.3730874414705825	-0.1020217531165245	-0.1050342280235289	-39.31547437714536	72.1098110190248	-22.20984065439177	-6.818822028060189	-32.72039453860351	-674.639723631458	88.92709776773661	-1.6366132395076	-0.8461747997747772	-0.5979895214618364	7.774781281063421	-0.1296088456524332	2.27525125756716	-4.113684039488053	8.586512590724475	8.586512590724499	-1.984373227234623	0.1936616324851962	3.054485947604748	0.5460245568908644	1.865206645967604e-07	6.643870608720805e-09	-1.417114280449562e-06	1.912561253162062e-07	1.543319478405849e-07	-5.833880879177402e-07	-5.653662065937126e-07
0.05	-0.008572792623541112	0.09513498498356725	0.9420000038630811	0.1863926422843716	-0.2322189446519631	-0.2583328037784367	-0.04445257863333293	0.08438145629187085	0.08438145629186954	0.171651004723123	0.1744866632250158	0.03650357931775461	-0.00262488457354498	-0.08040687461165494	-0.04367348259559888	-0.02898140518512082	0.3958611274385936	-0.003578960147736674	0.1280913678746676	-0.2257107615963125	0.4384763798705749	0.4384763798705944	-0.1098888731177744	-0.0009624483996356082	0.1577140892731341	0.03134578505812509	0.1991400479352556	-0.1832274566435907	-0.03798842066641164	-0.3819075012585453	0.3640648136794604	-0.1084680721883505	-0.09985712456661477	-39.44395178034937	69.05784043429438	-25.57531266735743	-6.246341947649284	-30.73811006843381	-673.3371876057143	80.82596310118652	-1.438322524070042	-0.8167636301848877	-0.582926514862022	7.273144365812495	-0.1065885772793479	2.367065501597237	-4.080741393450542	8.110752581347773	8.110752581349857	-1.889521845205796	-0.06298329045107248	2.88755099331848	0.5313621155166098	1.82335869124145e-07	-3.076374130093443e-09	-1.387337320924039e-06	1.62267173966192e-07	1.616745718986026e-07	-6.676278053320949e-07	-5.411089053204065e-07
0.06	-0.009450375410468387	0.09465764432915563	0.9416803972929986	0.1907157647665996	-0.2322610729616568	-0.2569377661153793	-0.04690822852353928	0.08917170551894821	0.08917170551894678	0.1704605625981799	0.1744777061319086	0.03822450962565255	-0.002286012696056877	-0.09502447728769857	-0.05175877991961692	-0.03495868584915286	0.4683879964527983	-0.004876609041257262	0.1507806540138693	-0.2651170244684951	0.5191747010742788	0.5191747010743223	-0.1279726793826014	-0.0008527319400331738	0.1863031851831459	0.03636034234630107	0.1925321125267018	-0.1700819234243423	-0.03627864706242671	-0.3747416885624092	0.3550421858883382	-0.1149143912601747	-0.09468002110970523	-39.59599176111357	66.0753385077747	-28.95203441594647	-5.645323896466922	-28.92281296494148	-670.9868142744895	72.52468810278069	-1.534231251639922	-0.802884509423333	-0.6214628398806304	7.324373834321868	-0.1668157799284467	2.113174122366233	-3.751053667700582	8.107695476877385	8.107695476879824	-1.713753196676132	0.1658375415233731	2.852198618614199	0.4625192757138375	1.771177867392503e-07	-1.313318517194711e-08	-1.350161884176643e-06	1.310783310830584e-07	1.684674248146352e-07	-7.505451182205079e-07	-5.129502635872811e-07
0.07000000000000001	-0.01047208448408672	0.09410049249107034	0.9413002431391387	0.1957538900519894	-0.2323170894510899	-0.2553217121191426	-0.04974853314248642	0.09475793298326604	0.09475793298326778	0.1690960827447611	0.1744710650063715	0.04022648423391791	-0.001898986936788382	-0.1092320669898553	-0.05963712974521137	-0.04110034410442941	0.5388693867536446	-0.006333082325306568	0.1722800255554671	-0.3026586193077718	0.5976717640801479	0.5976717640802662	-0.1447313628257254	-0.0004998844080754763	0.2139242400710785	0.0410023458623343	0.1856219574726605	-0.1642684226891576	-0.03434718965873552	-0.3679900139255289	0.3443723099947588	-0.1139885378226861	-0.08928933673056486	-39.76921300772417	62.80994931620108	-29.21423777337316	-5.497801211833806	-27.01947727702822	-669.1553916275343	70.44973237591419	-1.351212483161529	-0.7751077504810253	-0.6148983096768695	6.854875360837343	-0.1361805153135493	2.145855851800048	-3.71292039006038	7.660822195790742	7.660822195800375	-1.628334237200498	-0.0335788429843852	2.691965412153039	0.4584750910629979	1.636325990387778e-07	-2.008472956650899e-08	-1.237182467947346e-06	1.078152242743735e-07	1.656428299746694e-07	-7.939642793206898e-07	-4.701157334910262e-07
